<svg data-name="Layer 1" xmlns="http://www.w3.org/2000/svg" viewBox="0 0 515.04 427.36"><path d="M371.6 161.44c-30.49-6.65-51.49-17.49-54.78-35.46-.09-.67-.19-1.33-.28-2-.05-.41-.09-.82-.12-1.24v-.11c1.69-45.17 67.59-49.44 111.57-11.36a14 14 0 0017.68.56l48.55-37.34a12.65 12.65 0 001.5-18.65c-40.58-43.69-86-55.87-132.93-55.87-32.93 0-65.42 8-91.72 23.62a17.15 17.15 0 01-17.96-.32C230.19 8.77 201.19 0 166.11 0H25.46A25.46 25.46 0 000 25.46v401.08a.83.83 0 00.83.83.83.83 0 00.59-.25l96.32-108.06a25.05 25.05 0 007.37-17.72v-6.4a.83.83 0 01.83-.83h60.81c49.75 0 87.38-18 112.7-45.2a16.45 16.45 0 0118.19-4.06 197.36 197.36 0 0042.88 11.69c34 4.7 72.2 18.2 71 41.68-2.73 41.47-82.05 42.36-126.69 1.74a14.89 14.89 0 00-20.22.09l-46.16 43.3a13.83 13.83 0 00-1 19.19c37.77 43.06 86.63 64.83 133 64.83 76.31 0 160.84-44 164.37-124.45 4.71-102.15-69.25-127.98-143.22-141.48zm-205.49 39.33h-47.74a13.29 13.29 0 01-13.26-13.29v-76.15a13.29 13.29 0 0113.29-13.29h47.71c63.43-.59 63.43 103.32 0 102.73z" fill="#fff"/></svg>
