<svg data-name="Layer 1" xmlns="http://www.w3.org/2000/svg" viewBox="0 0 515.34 427.61"><defs><linearGradient id="prefix__a" x1="23.6" y1="281.42" x2="538.94" y2="281.42" gradientUnits="userSpaceOnUse"><stop offset="0" stop-color="#29b99a"/><stop offset=".21" stop-color="#2cb8a0"/><stop offset=".48" stop-color="#33b5b0"/><stop offset=".79" stop-color="#3fb1cb"/><stop offset="1" stop-color="#49ade2"/></linearGradient></defs><path d="M395.41 229.14c-30.5-6.65-51.56-17.5-54.82-35.48-.08-.67-.18-1.33-.28-2 0-.41-.09-.82-.11-1.24a.45.45 0 010-.11c1.71-45.21 67.64-49.48 111.64-11.35a14 14 0 0017.69.56l48.58-37.36a12.64 12.64 0 001.5-18.66c-40.61-43.72-86.05-55.9-133-55.9-33 0-65.47 8-91.78 23.63a17.15 17.15 0 01-17.93-.35c-22.9-14.5-51.96-23.27-87.08-23.27H49.07A25.47 25.47 0 0023.6 93.08v401.31a.83.83 0 00.83.83.83.83 0 00.57-.22l96.38-108.13a25 25 0 007.35-17.73v-6.4a.83.83 0 01.83-.83h60.84c49.78 0 87.43-18 112.76-45.23a16.49 16.49 0 0118.21-4.07 196.9 196.9 0 0042.89 11.7c34.07 4.7 72.25 18.21 71.08 41.71-2.73 41.49-82.1 42.39-126.76 1.74a14.91 14.91 0 00-20.24.09l-46.18 43.33a13.83 13.83 0 00-.95 19.2c37.79 43.08 86.68 64.86 133 64.86 76.36 0 160.94-44.05 164.47-124.52 4.74-102.23-69.26-128.07-143.27-141.58zm-205.59 39.35H142a13.29 13.29 0 01-13.29-13.29V179A13.3 13.3 0 01142 165.7h47.79c63.47-.58 63.47 103.38.03 102.79z" transform="translate(-23.6 -67.61)" fill="url(#prefix__a)"/></svg>
